<?xml version="1.0" encoding="utf-8"?>
<!-- Generator: Adobe Illustrator 16.0.0, SVG Export Plug-In . SVG Version: 6.00 Build 0)  -->
<!DOCTYPE svg PUBLIC "-//W3C//DTD SVG 1.1//EN" "http://www.w3.org/Graphics/SVG/1.1/DTD/svg11.dtd">
<svg version="1.1" id="Layer_1" xmlns="http://www.w3.org/2000/svg" xmlns:xlink="http://www.w3.org/1999/xlink" x="0px" y="0px"
	 width="38.75px" height="33.75px" viewBox="0 0 38.75 33.75" enable-background="new 0 0 38.75 33.75" xml:space="preserve">
<path d="M37.221,5.863c-1.702-2.827-5.025-4.449-9.12-4.449c-2.929,0-5.55,1.283-7.699,2.908c-1.917-2.119-5.619-4.054-9.573-3.95
	C8.276,0.438,4.654,1.384,1.898,5.513c-1.42,2.128-1.855,4.374-1.294,6.68c1.062,4.361,5.502,7.602,7.37,8.797v10.793
	c0,0.881,0.715,1.595,1.596,1.595h21.102c0.883,0,1.596-0.714,1.596-1.595V20.17c1.926-0.965,3.546-2.294,4.514-4.111
	C38.771,12.32,38.927,8.7,37.221,5.863z M33.963,14.563c-2.645,4.968-13.928,5.168-18.054,4.828
	c-0.875-0.079-1.649,0.579-1.722,1.456c-0.074,0.877,0.579,1.648,1.457,1.721c0.177,0.016,1.381,0.109,3.144,0.109
	c2.686,0,6.668-0.222,10.291-1.277v8.79H11.166V20.093c0-0.578-0.315-1.112-0.821-1.394c-0.056-0.03-5.652-3.188-6.64-7.266
	c-0.345-1.421-0.066-2.779,0.849-4.15c1.604-2.403,3.742-3.655,6.358-3.723c2.849-0.066,5.722,1.35,7.102,2.87
	c-2.176,2.199-3.49,4.327-3.601,4.512c-0.456,0.751-0.216,1.729,0.536,2.188c0.752,0.457,1.734,0.22,2.193-0.533
	c0.048-0.079,4.95-7.992,10.96-7.992c2.947,0,5.274,1.06,6.385,2.902C35.592,9.345,35.406,11.851,33.963,14.563z"/>
</svg>
