<?xml version="1.0" encoding="utf-8"?>
<!-- Generator: Adobe Illustrator 16.0.0, SVG Export Plug-In . SVG Version: 6.00 Build 0)  -->
<!DOCTYPE svg PUBLIC "-//W3C//DTD SVG 1.1//EN" "http://www.w3.org/Graphics/SVG/1.1/DTD/svg11.dtd">
<svg version="1.1" id="Ebene_1" xmlns="http://www.w3.org/2000/svg" xmlns:xlink="http://www.w3.org/1999/xlink" x="0px" y="0px"
	 width="100px" height="100px" viewBox="0 0 100 100" enable-background="new 0 0 100 100" xml:space="preserve">
<path fill-rule="evenodd" clip-rule="evenodd" fill="#FF6300" d="M81.498,32.729c0,0-7.733-6.519-6.974-8.508
	c0.759-1.99,2.707-0.7,2.707-0.7L81.498,32.729z"/>
<g>
	<g>
		<path fill="#7AC63C" d="M15.18,41.799h2.273v17.608h-1.74l-0.441-1.229H15.18c-0.464,0.649-1.601,1.461-3.271,1.461
			c-2.83,0-4.709-1.855-4.709-6.032c0-4.848,2.598-6.982,5.916-6.982c0.881,0,1.531,0.115,2.064,0.232V41.799z M15.203,55.973
			v-7.052c-0.441-0.209-1.276-0.349-1.855-0.349c-2.413,0-3.805,1.3-3.805,4.803c0,3.248,1.369,4.361,2.946,4.361
			C13.834,57.736,14.715,57.019,15.203,55.973z"/>
		<path fill="#7AC63C" d="M30.396,58.362c-0.905,0.696-2.204,1.229-4.223,1.229c-3.758,0-5.753-1.971-5.753-6.61
			c0-4.479,2.505-6.566,5.59-6.566c3.086,0,4.779,1.995,4.779,5.058c0,0.626-0.023,1.369-0.116,2.228h-7.981
			c0.139,2.807,1.323,3.989,3.759,3.989c1.299,0,2.389-0.556,2.923-1.043L30.396,58.362z M22.74,51.983h5.823
			c0.023-0.187,0.023-0.533,0.023-0.626c0-1.973-0.858-3.063-2.715-3.063C24.248,48.294,22.855,49.361,22.74,51.983z"/>
		<path fill="#7AC63C" d="M36.262,41.799V56.09c0,1.066,0.395,1.508,1.253,1.508c0.417,0,0.696-0.117,0.904-0.186v1.879
			c-0.463,0.186-1.043,0.301-1.624,0.301c-1.856,0-2.808-1.089-2.808-2.898V41.799H36.262z"/>
		<path fill="#7AC63C" d="M42.269,41.497c0.881,0,1.531,0.649,1.531,1.554c0,0.835-0.65,1.485-1.531,1.485
			c-0.835,0-1.508-0.649-1.508-1.485C40.76,42.146,41.434,41.497,42.269,41.497z M41.201,46.646h2.297v12.761h-2.297V46.646z"/>
		<path fill="#7AC63C" d="M56.999,59.314c0,3.387-2.182,5.057-5.429,5.057c-2.622,0-3.898-0.858-4.478-1.461l1.323-1.787
			c0.626,0.72,1.716,1.301,3.317,1.301c2.135,0,3.016-0.976,3.016-3.133V58.27h-0.093c-0.417,0.372-1.438,0.929-2.923,0.929
			c-2.645,0-4.918-1.531-4.918-5.963c0-3.921,2.018-6.728,6.218-6.728c1.809,0,3.085,0.278,3.967,0.696V59.314z M52.846,48.434
			c-2.25,0-3.712,1.508-3.712,4.617c0,3.34,1.462,4.222,3.156,4.222c0.951,0,1.878-0.395,2.436-1.091v-7.423
			C54.215,48.55,53.589,48.434,52.846,48.434z"/>
		<path fill="#7AC63C" d="M59.965,53.072c0-3.942,1.531-6.657,5.521-6.657c4.037,0,5.384,2.621,5.384,6.542
			c0,3.944-1.531,6.659-5.521,6.659C61.311,59.616,59.965,56.993,59.965,53.072z M65.485,57.713c2.228,0,3.017-1.508,3.017-4.616
			c0-3.202-0.904-4.778-3.154-4.778c-2.158,0-3.017,1.507-3.017,4.616C62.331,56.113,63.259,57.713,65.485,57.713z"/>
		<path fill="#7AC63C" d="M73.14,53.072c0-3.942,1.532-6.657,5.521-6.657c4.036,0,5.381,2.621,5.381,6.542
			c0,3.944-1.531,6.659-5.521,6.659C74.484,59.616,73.14,56.993,73.14,53.072z M78.661,57.713c2.228,0,3.016-1.508,3.016-4.616
			c0-3.202-0.904-4.778-3.155-4.778c-2.158,0-3.017,1.507-3.017,4.616C75.505,56.113,76.434,57.713,78.661,57.713z"/>
	</g>
</g>
<path fill-rule="evenodd" clip-rule="evenodd" fill="#568D34" d="M87.757,34.444c0.43-0.354,0.797-0.708,1.205-0.98
	c1.256-0.841,2.534-1.055,3.8-0.293c1.263,0.762,1.747,2.044,1.706,3.608c-0.065,2.419-1.097,3.994-3.202,4.894
	c-0.778,0.333-1.608,0.505-2.373,0.868c-1.466,0.693-2.901,1.47-4.464,2.271c-0.441-2.396-2.146-4.114-3.512-6.1
	c-1.451-2.11-1.326-4.266,0.223-6.401c1.946-2.685,5.173-2.312,6.227,0.724C87.518,33.47,87.616,33.93,87.757,34.444z"/>
<path fill-rule="evenodd" clip-rule="evenodd" fill="#7AC63C" d="M85.141,36.655c0,0,5.825-8.018,7.824-7.417
	s0.876,2.598,0.876,2.598L85.141,36.655z"/>
</svg>
