<?xml version="1.0" encoding="utf-8"?>
<!-- Generator: Adobe Illustrator 16.0.0, SVG Export Plug-In . SVG Version: 6.00 Build 0)  -->
<!DOCTYPE svg PUBLIC "-//W3C//DTD SVG 1.1//EN" "http://www.w3.org/Graphics/SVG/1.1/DTD/svg11.dtd">
<svg version="1.1" id="Ebene_1" xmlns="http://www.w3.org/2000/svg" xmlns:xlink="http://www.w3.org/1999/xlink" x="0px" y="0px"
	 width="192.5px" height="91.5px" viewBox="0 0 192.5 91.5" enable-background="new 0 0 192.5 91.5" xml:space="preserve">
<path fill="#FF6300" d="M163.588,21.568c0,0-16.98-14.316-15.316-18.684c1.669-4.371,5.945-1.538,5.945-1.538L163.588,21.568z"/>
<g>
	<g>
		<path fill="#7AC63C" d="M17.949,41.486h4.992v38.669h-3.822l-0.968-2.699h-0.202c-1.02,1.426-3.516,3.208-7.183,3.208
			c-6.216,0-10.341-4.072-10.341-13.244c0-10.648,5.704-15.335,12.992-15.335c1.935,0,3.362,0.253,4.533,0.51V41.486z
			 M17.999,72.612V57.127c-0.968-0.458-2.802-0.766-4.073-0.766c-5.299,0-8.356,2.855-8.356,10.547c0,7.133,3.007,9.577,6.469,9.577
			C14.992,76.485,16.927,74.912,17.999,72.612z"/>
		<path fill="#7AC63C" d="M51.364,77.859c-1.987,1.532-4.841,2.7-9.275,2.7c-8.252,0-12.634-4.327-12.634-14.518
			c0-9.836,5.502-14.418,12.276-14.418c6.778,0,10.495,4.382,10.495,11.106c0,1.377-0.05,3.007-0.255,4.895H34.445
			c0.305,6.164,2.905,8.758,8.256,8.758c2.852,0,5.245-1.22,6.418-2.289L51.364,77.859z M34.551,63.85h12.788
			c0.05-0.408,0.05-1.169,0.05-1.371c0-4.335-1.883-6.729-5.961-6.729C37.863,55.75,34.803,58.093,34.551,63.85z"/>
		<path fill="#7AC63C" d="M64.247,41.486v31.385c0,2.342,0.867,3.312,2.751,3.312c0.916,0,1.528-0.259,1.985-0.408V79.9
			c-1.018,0.408-2.292,0.661-3.567,0.661c-4.075,0-6.166-2.392-6.166-6.365v-32.71H64.247z"/>
		<path fill="#7AC63C" d="M77.438,40.824c1.936,0,3.363,1.425,3.363,3.412c0,1.833-1.428,3.262-3.363,3.262
			c-1.833,0-3.312-1.425-3.312-3.262C74.124,42.249,75.604,40.824,77.438,40.824z M75.094,52.131h5.043v28.024h-5.043V52.131z"/>
		<path fill="#7AC63C" d="M109.787,79.953c0,7.437-4.794,11.104-11.924,11.104c-5.758,0-8.56-1.883-9.833-3.208l2.904-3.925
			c1.375,1.58,3.769,2.856,7.287,2.856c4.687,0,6.62-2.143,6.62-6.88v-2.243h-0.203c-0.916,0.818-3.158,2.041-6.417,2.041
			c-5.811,0-10.803-3.361-10.803-13.094c0-8.611,4.432-14.777,13.656-14.777c3.972,0,6.775,0.611,8.712,1.53V79.953z
			 M100.666,56.059c-4.941,0-8.151,3.311-8.151,10.139c0,7.335,3.21,9.272,6.931,9.272c2.089,0,4.124-0.868,5.35-2.396V56.771
			C103.672,56.312,102.297,56.059,100.666,56.059z"/>
		<path fill="#7AC63C" d="M116.3,66.244c0-8.658,3.362-14.62,12.124-14.62c8.867,0,11.825,5.756,11.825,14.367
			c0,8.66-3.364,14.624-12.124,14.624C119.256,80.615,116.3,74.854,116.3,66.244z M128.42,76.435c4.896,0,6.628-3.311,6.628-10.135
			c0-7.033-1.986-10.495-6.927-10.495c-4.739,0-6.625,3.311-6.625,10.139C121.496,72.922,123.533,76.435,128.42,76.435z"/>
		<path fill="#7AC63C" d="M145.234,66.244c0-8.658,3.363-14.62,12.123-14.62c8.864,0,11.817,5.756,11.817,14.367
			c0,8.66-3.36,14.624-12.123,14.624C148.187,80.615,145.234,74.854,145.234,66.244z M157.357,76.435
			c4.894,0,6.626-3.311,6.626-10.135c0-7.033-1.986-10.495-6.932-10.495c-4.74,0-6.624,3.311-6.624,10.139
			C150.428,72.922,152.467,76.435,157.357,76.435z"/>
	</g>
</g>
<path fill="#568D34" d="M177.334,25.334c0.944-0.778,1.752-1.555,2.646-2.152c2.759-1.847,5.566-2.316,8.345-0.644
	c2.775,1.673,3.837,4.489,3.747,7.923c-0.144,5.313-2.408,8.772-7.032,10.748c-1.707,0.731-3.53,1.108-5.211,1.907
	c-3.218,1.521-6.37,3.228-9.802,4.987c-0.969-5.262-4.713-9.034-7.714-13.396c-3.187-4.633-2.912-9.369,0.491-14.058
	c4.271-5.896,11.357-5.077,13.674,1.591C176.808,23.195,177.024,24.206,177.334,25.334z"/>
<path fill="#7AC63C" d="M171.588,30.191c0,0,12.793-17.609,17.182-16.289c4.391,1.32,1.925,5.706,1.925,5.706L171.588,30.191z"/>
</svg>
